<?xml version="1.0" standalone="no"?><!DOCTYPE svg PUBLIC "-//W3C//DTD SVG 1.1//EN" "http://www.w3.org/Graphics/SVG/1.1/DTD/svg11.dtd"><svg t="1730598020093" class="icon" viewBox="0 0 1024 1024" version="1.1" xmlns="http://www.w3.org/2000/svg" p-id="8069" xmlns:xlink="http://www.w3.org/1999/xlink" width="128" height="128"><path d="M192 64h640a64 64 0 0 1 64 64v768a64 64 0 0 1-64 64H192a64 64 0 0 1-64-64V128a64 64 0 0 1 64-64z" fill="#D9F7BE" p-id="8070"></path><path d="M794.24 512h-40.32a5.76 5.76 0 0 0-5.76 5.76v230.4H275.84V275.84h230.4c3.2 0 5.76-2.56 5.76-5.76v-40.32a5.76 5.76 0 0 0-5.76-5.76H247.04c-12.8 0-23.04 10.24-23.04 23.04v529.92c0 12.8 10.24 23.04 23.04 23.04h529.92c12.736 0 23.04-10.24 23.04-23.04V517.76a5.76 5.76 0 0 0-5.76-5.76z m-394.624 16.512l-1.408 85.568a11.52 11.52 0 0 0 11.52 11.648h0.32l84.928-2.048a5.952 5.952 0 0 0 3.904-1.664l299.456-298.816a5.76 5.76 0 0 0 0-8.128l-89.472-89.408a5.952 5.952 0 0 0-8.192 0L401.28 524.48a5.952 5.952 0 0 0-1.664 4.032z m45.696 16.96l259.392-258.816 32.576 32.448-259.584 259.008-32.896 0.768 0.512-33.408z" fill="#52C41A" p-id="8071"></path></svg>