<?xml version="1.0" standalone="no"?><!DOCTYPE svg PUBLIC "-//W3C//DTD SVG 1.1//EN" "http://www.w3.org/Graphics/SVG/1.1/DTD/svg11.dtd"><svg t="1730185753146" class="icon" viewBox="0 0 1024 1024" version="1.1" xmlns="http://www.w3.org/2000/svg" p-id="6733" xmlns:xlink="http://www.w3.org/1999/xlink" width="128" height="128"><path d="M938.666667 106.666667c23.466667 0 42.666667 19.2 42.666666 42.666666v661.333334c0 23.466667-19.2 42.666667-42.666666 42.666666h-204.8c-74.666667 0-142.933333 32-187.733334 89.6l-2.133333 2.133334c0 2.133333-2.133333 2.133333-4.266667 2.133333 0 0 0 2.133333-2.133333 2.133333h-2.133333l-2.133334 2.133334s-2.133333 2.133333-4.266666 2.133333h-2.133334-2.133333c-2.133333 0-2.133333 0-4.266667 2.133333h-2.133333-19.2-2.133333-2.133334c-2.133333 0-2.133333 0-4.266666-2.133333h-2.133334-2.133333c-2.133333 0-2.133333-2.133333-4.266667-2.133333l-2.133333-2.133334h-2.133333l-2.133334-2.133333c-2.133333 0-2.133333-2.133333-4.266666-2.133333l-2.133334-2.133334c-46.933333-57.6-115.2-89.6-187.733333-89.6H85.333333c-23.466667 0-42.666667-19.2-42.666666-42.666666V149.333333c0-23.466667 19.2-42.666667 42.666666-42.666666h204.8c83.2 0 162.133333 32 221.866667 87.466666C571.733333 138.666667 650.666667 106.666667 733.866667 106.666667H938.666667z m-42.666667 661.333333V192h-162.133333c-68.266667 0-134.4 29.866667-179.2 81.066667v550.4c53.333333-34.133333 115.2-53.333333 179.2-53.333334H896z m-426.666667 53.333333V273.066667C424.533333 221.866667 358.4 192 290.133333 192H128v576h162.133333c64 0 125.866667 19.2 179.2 53.333333z" fill="#2F3CF4" p-id="6734"></path><path d="M398.933333 488.533333c-36.266667-12.8-72.533333-19.2-108.8-19.2H213.333333c-23.466667 0-42.666667 19.2-42.666666 42.666667s19.2 42.666667 42.666666 42.666667h76.8c27.733333 0 53.333333 4.266667 78.933334 12.8 4.266667 2.133333 8.533333 2.133333 14.933333 2.133333 17.066667 0 34.133333-10.666667 40.533333-27.733333 8.533333-21.333333-4.266667-46.933333-25.6-53.333334M398.933333 339.2c-36.266667-12.8-72.533333-19.2-108.8-19.2H213.333333c-23.466667 0-42.666667 19.2-42.666666 42.666667s19.2 42.666667 42.666666 42.666666h76.8c27.733333 0 53.333333 4.266667 78.933334 12.8 4.266667 2.133333 8.533333 2.133333 14.933333 2.133334 17.066667 0 34.133333-10.666667 40.533333-27.733334 8.533333-21.333333-4.266667-46.933333-25.6-53.333333" fill="#2F3CF4" p-id="6735"></path></svg>